<?xml version="1.0" encoding="UTF-8"?>
<svg version="1.1" xmlns="http://www.w3.org/2000/svg" width="1266" height="1266">
<path d="M0 0 C1.32644531 0.57814453 1.32644531 0.57814453 2.6796875 1.16796875 C10.66477725 4.91780573 17.98200466 9.50689977 24 16 C24.83144531 16.76763672 24.83144531 16.76763672 25.6796875 17.55078125 C30.31577149 21.87845622 33.19141874 26.34409844 36 32 C36.39445313 32.7528125 36.78890625 33.505625 37.1953125 34.28125 C40 39.69449301 40 39.69449301 40 42 C40.66 42.33 41.32 42.66 42 43 C41.67 43.66 41.34 44.32 41 45 C41.66 45.33 42.32 45.66 43 46 C47.8893733 65.92986267 43.74593707 85.25186512 33.98046875 102.8671875 C30.86576085 107.79420078 27.03900365 111.82591262 23 116 C21.41061715 117.7654057 19.82719168 119.53619442 18.25 121.3125 C13.76720672 126.2813793 9.13840129 130.8795978 4.125 135.3125 C0.26035195 138.75795145 -3.15601486 142.3471132 -6.48828125 146.30078125 C-8.44009172 148.49467674 -10.70949759 150.16759807 -13 152 C-14.81698367 153.98101692 -16.56441263 156.01274061 -18.3125 158.0546875 C-20.42865362 160.49414237 -22.68814413 162.74594053 -25 165 C-26.16801776 166.16531401 -27.33458984 167.33207818 -28.5 168.5 C-40.5 180.5 -40.5 180.5 -42.32421875 182.3203125 C-43.66319774 183.66241265 -44.98995095 185.01670638 -46.3125 186.375 C-48.77058982 188.77592494 -51.29914807 191.03968947 -53.875 193.3125 C-57.73964805 196.75795145 -61.15601486 200.3471132 -64.48828125 204.30078125 C-66.44009172 206.49467674 -68.70949759 208.16759807 -71 210 C-72.81774418 211.98184609 -74.56553989 214.01419862 -76.3125 216.05859375 C-78.42730634 218.49160012 -80.72092957 220.72092957 -83 223 C-85.36347554 225.64094855 -87.68358327 228.31781304 -90 231 C-89.08468506 231.16109253 -89.08468506 231.16109253 -88.15087891 231.32543945 C-82.01353355 232.46979986 -76.24635531 234.07933862 -70.375 236.1875 C-69.50963623 236.49502197 -68.64427246 236.80254395 -67.75268555 237.11938477 C-60.35253773 239.79160366 -53.14018988 242.79028474 -45.99609375 246.08203125 C-43.89879103 247.04654424 -41.79339799 247.9919179 -39.6875 248.9375 C-30.67605012 253.02932111 -22.28780756 257.56311346 -14 263 C-12.97132813 263.67160156 -11.94265625 264.34320313 -10.8828125 265.03515625 C-7.9058936 267.00083171 -4.94930126 268.99317518 -2 271 C-0.71996094 271.86238281 -0.71996094 271.86238281 0.5859375 272.7421875 C7.01844149 277.14551042 13.05753631 281.9579096 19 287 C19.52082814 287.43647858 20.04165628 287.87295715 20.5782671 288.32266235 C27.3095688 294.07426503 33.50822578 300.36000825 39.76245117 306.6171875 C41.03609283 307.88783244 42.30993775 309.15827365 43.58396912 310.42852783 C47.02416394 313.85993459 50.46115237 317.29453528 53.89727569 320.73001862 C56.04695348 322.87898341 58.19734269 325.02723366 60.34798622 327.17523193 C67.85813367 334.67614596 75.3657118 342.17962046 82.87084961 349.68554688 C89.85659989 356.67189869 96.84791761 363.65264456 103.84185046 370.63080406 C109.8583551 376.63422467 115.87098938 382.64150305 121.88063604 388.65178871 C125.46490792 392.23631516 129.05070423 395.81928286 132.64040184 399.39837646 C136.01425335 402.76253149 139.38324958 406.13147472 142.74862099 409.50411224 C143.98161096 410.73814584 145.21629858 411.97048602 146.45283508 413.20096588 C148.14566373 414.88604081 149.83215021 416.57722814 151.51725769 418.27001953 C152.0030598 418.75067808 152.48886192 419.23133663 152.98938531 419.72656059 C165.53558328 432.3987731 171.6822827 450.02265366 172.09765625 467.65625 C172.03845172 479.14707638 168.90640384 489.65928812 164 500 C163.57460937 501.07121094 163.57460937 501.07121094 163.140625 502.1640625 C160.35328324 508.76427741 155.12553247 513.15878058 150 518 C149.18015625 518.84175781 148.3603125 519.68351563 147.515625 520.55078125 C134.5791607 533.14575503 117.64089344 537.29713368 99.9777832 537.31469727 C82.81651877 537.00553474 69.39294748 531.67867674 56.40406799 520.50222778 C55.79339999 519.9770771 55.18273198 519.45192642 54.55355889 518.91086209 C48.3581214 513.52647909 42.55246844 507.79931846 36.78491211 501.96435547 C35.64185634 500.81580255 34.49832187 499.66772588 33.35435486 498.52008057 C30.92135925 496.07748847 28.49146111 493.63187391 26.06400871 491.18377304 C22.21347134 487.30098611 18.35439992 483.42675321 14.49403381 479.55374146 C4.91370067 469.9395779 -4.65712061 460.31596121 -14.2230835 450.6875 C-21.67642957 443.18550734 -29.13307328 435.68686412 -36.60034555 428.19872963 C-40.42671724 424.36094124 -44.24608353 420.51636397 -48.06006444 416.66626334 C-50.44530638 414.26163333 -52.83696816 411.86346512 -55.23033714 409.46692657 C-56.32572423 408.36757052 -57.41857109 407.26567553 -58.50844574 406.16085434 C-67.76701592 396.78006947 -77.41170032 388.42223073 -89 382 C-91.91622303 380.26397167 -94.83129323 378.52620024 -97.7421875 376.78125 C-104.93822257 372.84672723 -112.23260947 370.12519214 -120.125 367.9375 C-121.04732422 367.68073486 -121.96964844 367.42396973 -122.91992188 367.15942383 C-149.7801625 359.80183008 -175.18846249 359.4927695 -202 367 C-202.73750488 367.20608887 -203.47500977 367.41217773 -204.23486328 367.62451172 C-214.45820046 370.56589364 -223.40426365 374.53305406 -232.52734375 379.98828125 C-235.16092742 381.55661093 -237.73683066 382.76467429 -240.625 383.8125 C-250.3434159 387.84938045 -258.85985887 397.49369778 -266 405 C-274.5 413.5 -274.5 413.5 -276.3203125 415.31640625 C-277.68140407 416.68066315 -279.03013533 418.05724416 -280.375 419.4375 C-282.64851242 421.65688117 -284.97730959 423.7307215 -287.375 425.8125 C-291.07481761 429.06366863 -294.27878407 432.50883619 -297.453125 436.265625 C-299.4200361 438.47094957 -301.69490103 440.15592083 -304 442 C-305.81821133 443.98235541 -307.56682453 446.01553381 -309.31640625 448.05859375 C-311.43147454 450.4975472 -313.68947914 452.7458333 -316 455 C-317.33469736 456.33196791 -318.66791219 457.66542231 -320 459 C-344.5 483.5 -344.5 483.5 -346.3203125 485.31640625 C-347.68140407 486.68066315 -349.03013533 488.05724416 -350.375 489.4375 C-352.64851242 491.65688117 -354.97730959 493.7307215 -357.375 495.8125 C-361.07481761 499.06366863 -364.27878407 502.50883619 -367.453125 506.265625 C-369.4200361 508.47094957 -371.69490103 510.15592083 -374 512 C-375.81821133 513.98235541 -377.56682453 516.01553381 -379.31640625 518.05859375 C-381.43147454 520.4975472 -383.68947914 522.7458333 -386 525 C-387.33469736 526.33196791 -388.66791219 527.66542231 -390 529 C-414.5 553.5 -414.5 553.5 -416.3203125 555.31640625 C-417.68140407 556.68066315 -419.03013533 558.05724416 -420.375 559.4375 C-422.64851242 561.65688117 -424.97730959 563.7307215 -427.375 565.8125 C-431.07481761 569.06366863 -434.27878407 572.50883619 -437.453125 576.265625 C-439.4200361 578.47094957 -441.69490103 580.15592083 -444 582 C-445.79771937 584.03007766 -447.53833115 586.09541688 -449.25390625 588.1953125 C-451 590 -451 590 -453.15234375 590.9921875 C-453.76207031 591.32476563 -454.37179687 591.65734375 -455 592 C-455.34771332 593.32965572 -455.67935213 594.66355927 -456 596 C-457.85546875 598.0078125 -457.85546875 598.0078125 -460.1875 600.125 C-464.16403281 603.9631092 -466.92686163 607.73571289 -469.60546875 612.546875 C-470.94488091 614.90303981 -472.42245696 617.04877715 -474 619.25 C-477.23308009 624.03630916 -479.38442234 629.14828851 -481.55859375 634.484375 C-482.43487368 636.62164312 -483.35398035 638.74284571 -484.34765625 640.828125 C-488.5040535 649.72561147 -489.98383457 659.07904449 -491.59863281 668.69506836 C-491.87225226 670.26638299 -492.18620412 671.83107718 -492.53491211 673.38745117 C-493.52948771 678.97430341 -493.29129869 684.71383151 -493.3125 690.375 C-493.31545074 691.06307739 -493.31840149 691.75115479 -493.32144165 692.46008301 C-493.33727318 708.74623526 -491.57361929 725.57725265 -486 741 C-485.34 741.33 -484.68 741.66 -484 742 C-483.30356015 743.98982813 -482.645124 745.99294757 -482 748 C-480.24126638 752.22699925 -478.32698357 756.35771084 -476.25 760.4375 C-475 763 -475 763 -475 765 C-474.34 765 -473.68 765 -473 765 C-471.56905982 767.099519 -470.24395411 769.19980688 -468.9375 771.375 C-465.5058122 776.90623773 -461.83204791 781.78615641 -457.3359375 786.5234375 C-455.44443928 788.52880518 -453.64285213 790.56476686 -451.84695339 792.65389919 C-448.09820176 796.94543095 -444.14731432 800.99249402 -440.11280823 805.01417542 C-439.34884749 805.77969614 -438.58488675 806.54521687 -437.79777569 807.3339352 C-435.25630054 809.87937524 -432.71129458 812.42125422 -430.16625977 814.96313477 C-428.33565921 816.79509136 -426.50527125 818.6272604 -424.67507935 820.45962524 C-420.2310822 824.90805444 -415.78440357 829.35379369 -411.33673758 833.79855437 C-407.7200494 837.41297842 -404.10434544 841.02838433 -400.4893322 844.64448357 C-399.97359786 845.16037114 -399.45786352 845.67625871 -398.92650087 846.20777924 C-397.87859623 847.25600362 -396.83069383 848.30423024 -395.78279363 849.35245907 C-385.97092863 859.16717135 -376.15600847 868.9788238 -366.34003025 878.78942209 C-357.92897008 887.1960149 -349.52053511 895.60522601 -341.11401367 904.01635742 C-331.33701618 913.79871396 -321.55838882 923.57943653 -311.77717823 933.3575806 C-310.73294459 934.40149571 -309.68871303 935.44541291 -308.64448357 936.4893322 C-308.13078556 937.00287593 -307.61708755 937.51641967 -307.08782293 938.04552533 C-303.47880009 941.65368701 -299.87093426 945.26300308 -296.26352119 948.87277412 C-291.4026738 953.73672912 -286.53916307 958.59800758 -281.67387772 963.45752335 C-279.89126108 965.23882047 -278.10948979 967.02096404 -276.32863808 968.80402565 C-273.89279485 971.24261216 -271.45387481 973.6780805 -269.01417542 976.11280823 C-268.31464565 976.81456871 -267.61511589 977.51632919 -266.89438826 978.23935515 C-262.96713918 982.15115751 -258.93756626 985.87527616 -254.71849579 989.47137588 C-253 991 -253 991 -250.4375 993.8125 C-248.10605688 996.23585641 -248.10605688 996.23585641 -244.72265625 996.8828125 C-240.75807813 998.07260195 -238.33895978 999.64771658 -235 1002.0625 C-228.85398203 1006.25398125 -222.42286731 1009.12423298 -215.5 1011.8125 C-214.57574219 1012.17287354 -213.65148437 1012.53324707 -212.69921875 1012.90454102 C-200.47729872 1017.51019637 -188.76026943 1020.63164814 -175.6875 1021.375 C-174.39513428 1021.45314941 -173.10276855 1021.53129883 -171.77124023 1021.61181641 C-154.476944 1022.48337005 -136.41531056 1022.04198226 -120 1016 C-119.12553223 1015.6803125 -118.25106445 1015.360625 -117.35009766 1015.03125 C-99.42726953 1008.32777112 -81.57262526 999.8433044 -68 986 C-66.69357854 984.8679469 -65.38069818 983.74331784 -64.0625 982.625 C-61.78961867 980.65324451 -59.88517003 978.85646254 -58 976.5 C-55.59950808 973.4993851 -52.8575725 971.18065247 -49.9453125 968.6875 C-47.50585763 966.57134638 -45.25405947 964.31185587 -43 962 C-41.83468599 960.83198224 -40.66792182 959.66541016 -39.5 958.5 C-38.901875 957.901875 -38.30375 957.30375 -37.6875 956.6875 C-30.29166667 949.29166667 -22.89583333 941.89583333 -15.5 934.5 C-14.89929688 933.89800781 -14.29859375 933.29601562 -13.6796875 932.67578125 C-12.33758735 931.33680226 -10.98329362 930.01004905 -9.625 928.6875 C-7.22407506 926.22941018 -4.96031053 923.70085193 -2.6875 921.125 C0.74549747 917.28072829 4.30428516 913.83446334 8.234375 910.5078125 C10.62626106 908.46518414 12.80404494 906.25085394 15 904 C16.33196791 902.66530264 17.66542231 901.33208781 19 900 C19.69222656 899.30648437 20.38445313 898.61296875 21.09765625 897.8984375 C22.53472046 896.46432414 23.98338906 895.04182604 25.4375 893.625 C27.81656187 891.18791223 30.05938052 888.67802275 32.3125 886.125 C35.74372892 882.28270871 39.29777095 878.83553557 43.23046875 875.515625 C44.73669274 874.22552587 46.16016864 872.83983136 47.5625 871.4375 C49.98895314 869.01104686 52.51835068 866.81495415 55.15625 864.625 C57.13552853 862.93721077 57.13552853 862.93721077 59.23828125 860.5703125 C62.48488375 857.54872206 65.71895922 855.7816444 69.6875 853.875 C70.39430908 853.52880615 71.10111816 853.1826123 71.8293457 852.82592773 C77.07545392 850.31213013 82.30882845 848.2728868 88 847 C88.7425 846.81953125 89.485 846.6390625 90.25 846.453125 C107.01116462 843.69134219 123.70722271 846.89430036 138 856 C139.23556641 856.74636719 139.23556641 856.74636719 140.49609375 857.5078125 C145.30668255 860.52529185 148.51497995 863.54691883 152 868 C152.804375 868.598125 153.60875 869.19625 154.4375 869.8125 C165.09562408 878.91089861 170.3336776 895.00504864 171.58813477 908.59472656 C173.19482124 929.36775296 166.39321949 948.18856033 153 964 C151.37446717 965.70680947 149.70884005 967.37660195 148 969 C147.11248047 969.91845703 147.11248047 969.91845703 146.20703125 970.85546875 C145.26923828 971.82419922 145.26923828 971.82419922 144.3125 972.8125 C143.73113281 973.41707031 143.14976562 974.02164063 142.55078125 974.64453125 C141 976 141 976 139 976 C138.7525 976.57234375 138.505 977.1446875 138.25 977.734375 C136.80683801 980.35010611 135.11783778 982.14773456 133 984.25 C132.29875 984.95640625 131.5975 985.6628125 130.875 986.390625 C129 988 129 988 127 988 C126.73832031 988.58910156 126.47664062 989.17820312 126.20703125 989.78515625 C124.9357725 992.11785434 123.59769469 993.60354368 121.6875 995.4375 C121.06230469 996.04464844 120.43710937 996.65179687 119.79296875 997.27734375 C118.90544922 998.13005859 118.90544922 998.13005859 118 999 C117.175 999.825 116.35 1000.65 115.5 1001.5 C114.675 1002.325 113.85 1003.15 113 1004 C112.40832031 1004.61488281 111.81664062 1005.22976563 111.20703125 1005.86328125 C110.58183594 1006.50652344 109.95664062 1007.14976562 109.3125 1007.8125 C108.73113281 1008.41707031 108.14976562 1009.02164063 107.55078125 1009.64453125 C106 1011 106 1011 104 1011 C103.7525 1011.57234375 103.505 1012.1446875 103.25 1012.734375 C101.80683801 1015.35010611 100.11783778 1017.14773456 98 1019.25 C97.29875 1019.95640625 96.5975 1020.6628125 95.875 1021.390625 C94 1023 94 1023 92 1023 C91.73832031 1023.58910156 91.47664062 1024.17820312 91.20703125 1024.78515625 C89.9357725 1027.11785434 88.59769469 1028.60354368 86.6875 1030.4375 C86.06230469 1031.04464844 85.43710937 1031.65179687 84.79296875 1032.27734375 C84.20128906 1032.84582031 83.60960937 1033.41429687 83 1034 C81.7625 1035.2375 81.7625 1035.2375 80.5 1036.5 C79.2625 1037.7375 79.2625 1037.7375 78 1039 C77.40832031 1039.61488281 76.81664062 1040.22976563 76.20703125 1040.86328125 C75.58183594 1041.50652344 74.95664062 1042.14976563 74.3125 1042.8125 C73.73113281 1043.41707031 73.14976562 1044.02164062 72.55078125 1044.64453125 C71 1046 71 1046 69 1046 C68.7525 1046.57234375 68.505 1047.1446875 68.25 1047.734375 C66.80683801 1050.35010611 65.11783778 1052.14773456 63 1054.25 C62.29875 1054.95640625 61.5975 1055.6628125 60.875 1056.390625 C59 1058 59 1058 57 1058 C56.73832031 1058.58910156 56.47664062 1059.17820312 56.20703125 1059.78515625 C54.9357725 1062.11785434 53.59769469 1063.60354368 51.6875 1065.4375 C51.06230469 1066.04464844 50.43710937 1066.65179687 49.79296875 1067.27734375 C49.20128906 1067.84582031 48.60960937 1068.41429687 48 1069 C46.7625 1070.2375 46.7625 1070.2375 45.5 1071.5 C44.2625 1072.7375 44.2625 1072.7375 43 1074 C42.40832031 1074.61488281 41.81664062 1075.22976563 41.20703125 1075.86328125 C40.58183594 1076.50652344 39.95664062 1077.14976563 39.3125 1077.8125 C38.73113281 1078.41707031 38.14976562 1079.02164062 37.55078125 1079.64453125 C36 1081 36 1081 34 1081 C33.77441406 1081.55816406 33.54882812 1082.11632813 33.31640625 1082.69140625 C27.48370287 1092.92027182 14.12895343 1100.65568756 4.875 1107.58300781 C2.48658681 1109.38800132 0.14934991 1111.25394112 -2.1875 1113.125 C-5.31282863 1115.56573284 -8.41510474 1117.27925028 -12 1119 C-13.65310253 1120.04779582 -15.29645939 1121.11101968 -16.93359375 1122.18359375 C-22.85707736 1125.9756758 -28.94490819 1129.32827522 -35.1875 1132.5625 C-36.83105469 1133.4143689 -36.83105469 1133.4143689 -38.5078125 1134.28344727 C-46.8541028 1138.54445457 -55.12434792 1142.0137129 -64 1145 C-65.39738291 1145.51009779 -66.7931739 1146.02457366 -68.1875 1146.54296875 C-81.67802196 1151.52526379 -95.37224129 1154.73114513 -109.4375 1157.625 C-110.91863281 1157.93449585 -110.91863281 1157.93449585 -112.4296875 1158.25024414 C-128.01130201 1161.36935309 -143.23690053 1162.35028058 -159.09960938 1162.31567383 C-162.10063476 1162.31252556 -165.10065872 1162.33603409 -168.1015625 1162.36132812 C-186.5241627 1162.42280458 -204.60288061 1160.50980439 -222.5 1156.0625 C-223.59328613 1155.79872559 -224.68657227 1155.53495117 -225.81298828 1155.26318359 C-227.94219532 1154.74629369 -230.07006816 1154.2238634 -232.19628906 1153.69482422 C-234.55139415 1153.11117487 -236.90970048 1152.55112121 -239.2734375 1152.00390625 C-248.33922594 1149.79153922 -256.80417742 1146.43140062 -265.40625 1142.87109375 C-268.81782808 1141.46175434 -272.24009298 1140.20956299 -275.75 1139.0625 C-281.27336273 1137.12233144 -286.22389099 1134.21303817 -291.25683594 1131.26000977 C-294.32526093 1129.46444998 -297.27100663 1127.88504554 -300.5546875 1126.4921875 C-304.25161446 1124.89102412 -307.53125633 1122.90648291 -310.875 1120.6875 C-311.47997314 1120.29087158 -312.08494629 1119.89424316 -312.70825195 1119.4855957 C-313.9155137 1118.69312435 -315.12136713 1117.89850267 -316.32568359 1117.1015625 C-317.80804896 1116.126288 -319.30351327 1115.17098738 -320.80078125 1114.21875 C-321.58839844 1113.7134375 -322.37601562 1113.208125 -323.1875 1112.6875 C-324.19876953 1112.04361328 -324.19876953 1112.04361328 -325.23046875 1111.38671875 C-327.26295771 1109.79392939 -328.60305429 1108.16677956 -330 1106 C-330 1105.34 -330 1104.68 -330 1104 C-330.87785156 1103.91105469 -331.75570313 1103.82210938 -332.66015625 1103.73046875 C-341.22665203 1101.8568609 -348.43239163 1093.74549527 -354.72058105 1087.84945679 C-355.3636758 1087.24736149 -356.00677054 1086.6452662 -356.66935301 1086.02492559 C-365.29913163 1077.89361357 -373.65496593 1069.4848115 -382.03320312 1061.09619141 C-383.89574992 1059.23500281 -385.75849 1057.37400947 -387.62145996 1055.51324463 C-392.11771129 1051.02139789 -396.61130661 1046.52690357 -401.10389668 1042.03139527 C-404.75676433 1038.37625443 -408.41062484 1034.72210878 -412.06517029 1031.06864548 C-412.58843551 1030.54553348 -413.11170074 1030.02242149 -413.65082249 1029.48345762 C-414.71426715 1028.42033273 -415.77771402 1027.35721007 -416.8411631 1026.2940896 C-426.76797186 1016.37011953 -436.69173568 1006.44310916 -446.61442846 996.51502387 C-455.11360931 988.01136722 -463.61542125 979.51034848 -472.11914062 971.01123047 C-482.0264336 961.10929591 -491.93209384 951.20573266 -501.83517408 941.29958475 C-502.89189925 940.24254106 -503.9486265 939.18549945 -505.00535583 938.12845993 C-505.52512699 937.6085345 -506.04489814 937.08860908 -506.58041993 936.55292834 C-510.22974001 932.9027476 -513.88021335 929.25372271 -517.53114319 925.60515213 C-522.44525759 920.694144 -527.35669783 915.7804748 -532.26637268 910.86502838 C-534.06541383 909.06466764 -535.86530156 907.26515239 -537.66610718 905.46655655 C-540.12840359 903.00700286 -542.58758299 900.54437313 -545.04602051 898.08096313 C-546.10900824 897.02132148 -546.10900824 897.02132148 -547.19347048 895.94027293 C-551.11911309 891.99927159 -554.86827742 887.95728895 -558.49546766 883.73941743 C-560.5798191 881.3296605 -562.76206699 879.01495994 -564.9375 876.6875 C-569.07918452 872.16127552 -572.72092869 867.45210515 -576.2109375 862.41015625 C-577.94443814 859.9334644 -577.94443814 859.9334644 -580.2265625 857.87109375 C-582 856 -582 856 -582 853 C-582.66 853 -583.32 853 -584 853 C-585.0595799 851.370562 -586.04743356 849.694224 -587 848 C-588.84968012 845.13636247 -590.70913002 842.27940562 -592.57421875 839.42578125 C-594 837 -594 837 -594 835 C-594.66 835 -595.32 835 -596 835 C-596.40476562 834.01386719 -596.80953125 833.02773438 -597.2265625 832.01171875 C-599.02926324 827.80506479 -601.18639574 823.82792165 -603.375 819.8125 C-606.51333546 813.96811539 -609.37463377 808.1332793 -611.81640625 801.95703125 C-613.16221825 798.59472207 -614.64712622 795.30624574 -616.125 792 C-618.32211511 786.87525688 -619.93805038 781.94285871 -621.15625 776.51171875 C-622.04919279 772.7952578 -623.10759413 769.15328318 -624.19238281 765.48925781 C-638.37652961 717.37978773 -638.06574098 659.02620152 -622.109375 611.3828125 C-621.14899942 608.4543433 -620.35713503 605.55353946 -619.625 602.5625 C-617.7448346 595.4416437 -614.73221762 588.71837434 -611.83935547 581.96166992 C-611.06272852 580.14660374 -610.30026304 578.32549578 -609.5390625 576.50390625 C-607.77811824 572.49485295 -605.85152052 568.59348104 -603.875 564.6875 C-603.51535156 563.97271484 -603.15570312 563.25792969 -602.78515625 562.52148438 C-601.85841941 560.68015893 -600.9293748 558.83999539 -600 557 C-599.67 556.34 -599.34 555.68 -599 555 C-598.34 555 -597.68 555 -597 555 C-596.67 553.02 -596.34 551.04 -596 549 C-595.34 549 -594.68 549 -594 549 C-593.9175 548.278125 -593.835 547.55625 -593.75 546.8125 C-592.8338026 543.37675976 -591.24089945 541.76520001 -589 539 C-587.34878969 536.59318073 -585.77448198 534.13700561 -584.1875 531.6875 C-580.92086854 526.70270131 -577.60309578 522.03419853 -573.47265625 517.7109375 C-571.88359772 515.97006806 -571.88359772 515.97006806 -570.5859375 513.5703125 C-568.85731917 510.76875865 -566.93617393 508.77360336 -564.5625 506.5 C-562.03606969 504.04329261 -559.76150884 501.70035726 -557.5625 498.9375 C-557.046875 498.298125 -556.53125 497.65875 -556 497 C-555.34 497 -554.68 497 -554 497 C-553.73445313 496.41863281 -553.46890625 495.83726562 -553.1953125 495.23828125 C-549.81941201 488.91674209 -544.16540175 484.15252959 -538.76953125 479.58203125 C-536.84933743 477.95327059 -536.84933743 477.95327059 -535 475.5 C-532.59950808 472.4993851 -529.8575725 470.18065247 -526.9453125 467.6875 C-524.50585763 465.57134638 -522.25405947 463.31185587 -520 461 C-518.83468599 459.83198224 -517.66792182 458.66541016 -516.5 457.5 C-515.9534375 456.9534375 -515.406875 456.406875 -514.84375 455.84375 C-513.42902432 454.42902432 -512.00707879 453.02151545 -510.58203125 451.6171875 C-508.02436676 449.02469853 -505.60353187 446.34937842 -503.1875 443.625 C-499.56630299 439.6158176 -495.85935304 435.95804396 -491.734375 432.4765625 C-489.3511518 430.44760221 -487.18421214 428.24021758 -485 426 C-483.83468599 424.83198224 -482.66792182 423.66541016 -481.5 422.5 C-480.89929688 421.89800781 -480.29859375 421.29601562 -479.6796875 420.67578125 C-478.33758735 419.33680226 -476.98329362 418.01004905 -475.625 416.6875 C-473.22407506 414.22941018 -470.96031053 411.70085193 -468.6875 409.125 C-465.24204855 405.26035195 -461.6528868 401.84398514 -457.69921875 398.51171875 C-455.83813401 396.941323 -455.83813401 396.941323 -454 394.5 C-451.58754578 391.48443222 -448.8057385 389.18724755 -445.875 386.6875 C-443.86602082 384.971342 -443.86602082 384.971342 -442 382.5 C-439.59950808 379.4993851 -436.8575725 377.18065247 -433.9453125 374.6875 C-431.50585763 372.57134638 -429.25405947 370.31185587 -427 368 C-425.83468599 366.83198224 -424.66792182 365.66541016 -423.5 364.5 C-422.901875 363.901875 -422.30375 363.30375 -421.6875 362.6875 C-416.59375 357.59375 -416.59375 357.59375 -411.5 352.5 C-410.89929688 351.89800781 -410.29859375 351.29601562 -409.6796875 350.67578125 C-408.33758735 349.33680226 -406.98329362 348.01004905 -405.625 346.6875 C-403.22407506 344.22941018 -400.96031053 341.70085193 -398.6875 339.125 C-395.24204855 335.26035195 -391.6528868 331.84398514 -387.69921875 328.51171875 C-385.83813401 326.941323 -385.83813401 326.941323 -384 324.5 C-381.58754578 321.48443222 -378.8057385 319.18724755 -375.875 316.6875 C-373.86602082 314.971342 -373.86602082 314.971342 -372 312.5 C-369.59950808 309.4993851 -366.8575725 307.18065247 -363.9453125 304.6875 C-361.50585763 302.57134638 -359.25405947 300.31185587 -357 298 C-355.83468599 296.83198224 -354.66792182 295.66541016 -353.5 294.5 C-352.901875 293.901875 -352.30375 293.30375 -351.6875 292.6875 C-348.29166667 289.29166667 -344.89583333 285.89583333 -341.5 282.5 C-340.89929688 281.89800781 -340.29859375 281.29601562 -339.6796875 280.67578125 C-338.33758735 279.33680226 -336.98329362 278.01004905 -335.625 276.6875 C-333.22407506 274.22941018 -330.96031053 271.70085193 -328.6875 269.125 C-325.24204855 265.26035195 -321.6528868 261.84398514 -317.69921875 258.51171875 C-315.83813401 256.941323 -315.83813401 256.941323 -314 254.5 C-311.58754578 251.48443222 -308.8057385 249.18724755 -305.875 246.6875 C-303.86602082 244.971342 -303.86602082 244.971342 -302 242.5 C-299.59950808 239.4993851 -296.8575725 237.18065247 -293.9453125 234.6875 C-291.50585763 232.57134638 -289.25405947 230.31185587 -287 228 C-285.83468599 226.83198224 -284.66792182 225.66541016 -283.5 224.5 C-282.9534375 223.9534375 -282.406875 223.406875 -281.84375 222.84375 C-280.42902432 221.42902432 -279.00707879 220.02151545 -277.58203125 218.6171875 C-275.02436676 216.02469853 -272.60353187 213.34937842 -270.1875 210.625 C-266.56630299 206.6158176 -262.85935304 202.95804396 -258.734375 199.4765625 C-256.3511518 197.44760221 -254.18421214 195.24021758 -252 193 C-250.83468599 191.83198224 -249.66792182 190.66541016 -248.5 189.5 C-247.89929688 188.89800781 -247.29859375 188.29601562 -246.6796875 187.67578125 C-245.33758735 186.33680226 -243.98329362 185.01004905 -242.625 183.6875 C-240.22407506 181.22941018 -237.96031053 178.70085193 -235.6875 176.125 C-232.24204855 172.26035195 -228.6528868 168.84398514 -224.69921875 165.51171875 C-222.83813401 163.941323 -222.83813401 163.941323 -221 161.5 C-218.58754578 158.48443222 -215.8057385 156.18724755 -212.875 153.6875 C-210.86602082 151.971342 -210.86602082 151.971342 -209 149.5 C-206.59950808 146.4993851 -203.8575725 144.18065247 -200.9453125 141.6875 C-198.50585763 139.57134638 -196.25405947 137.31185587 -194 135 C-192.83468599 133.83198224 -191.66792182 132.66541016 -190.5 131.5 C-189.901875 130.901875 -189.30375 130.30375 -188.6875 129.6875 C-185.29166667 126.29166667 -181.89583333 122.89583333 -178.5 119.5 C-177.89929688 118.89800781 -177.29859375 118.29601562 -176.6796875 117.67578125 C-175.33758735 116.33680226 -173.98329362 115.01004905 -172.625 113.6875 C-170.22407506 111.22941018 -167.96031053 108.70085193 -165.6875 106.125 C-162.24204855 102.26035195 -158.6528868 98.84398514 -154.69921875 95.51171875 C-152.83813401 93.941323 -152.83813401 93.941323 -151 91.5 C-148.58754578 88.48443222 -145.8057385 86.18724755 -142.875 83.6875 C-140.86602082 81.971342 -140.86602082 81.971342 -139 79.5 C-136.59950808 76.4993851 -133.8575725 74.18065247 -130.9453125 71.6875 C-128.50585763 69.57134638 -126.25405947 67.31185587 -124 65 C-122.83468599 63.83198224 -121.66792182 62.66541016 -120.5 61.5 C-119.6028125 60.6028125 -119.6028125 60.6028125 -118.6875 59.6875 C-115.29166667 56.29166667 -111.89583333 52.89583333 -108.5 49.5 C-107.89929688 48.89800781 -107.29859375 48.29601563 -106.6796875 47.67578125 C-105.33758735 46.33680226 -103.98329362 45.01004905 -102.625 43.6875 C-100.22407506 41.22941018 -97.96031053 38.70085193 -95.6875 36.125 C-92.2412959 32.25950774 -88.65322501 28.84102163 -84.6953125 25.51171875 C-82.83845636 23.94839088 -82.83845636 23.94839088 -81.0625 21.5 C-78.50112521 18.39530329 -75.54533678 16.2247353 -72.31640625 13.84375 C-69.90440695 12.02458215 -69.90440695 12.02458215 -67.79296875 9.57421875 C-64.13593522 6.20361023 -60.2400235 4.37481909 -55.75 2.3125 C-54.53763672 1.72758789 -54.53763672 1.72758789 -53.30078125 1.13085938 C-37.37581156 -6.32202644 -16.16851621 -7.23576454 0 0 Z " fill="#000000" transform="translate(774,7)"/>
<path d="M0 0 C0.85747472 -0.00145344 1.71494945 -0.00290688 2.59840825 -0.00440437 C5.46724533 -0.00804927 8.33602878 -0.00458494 11.20486546 -0.0011425 C13.28425533 -0.00229491 15.36364499 -0.00388325 17.44303423 -0.00586975 C23.15398262 -0.01004655 28.86491431 -0.00797978 34.57586277 -0.00488353 C40.73614387 -0.00262295 46.89642208 -0.00611234 53.05670261 -0.00886345 C64.42630574 -0.01305594 75.79590206 -0.01268864 87.16550502 -0.00995198 C97.66963895 -0.00743607 108.17377092 -0.00677989 118.67790508 -0.00797462 C119.72319919 -0.0080892 119.72319919 -0.0080892 120.78961035 -0.00820609 C123.61844011 -0.00851744 126.44726987 -0.00883584 129.27609964 -0.00916586 C155.81185872 -0.01222473 182.34761441 -0.00945166 208.88337297 -0.00406896 C232.4549402 0.0006761 256.02650202 0.00025244 279.59806919 -0.00452995 C306.08390004 -0.00988566 332.5697279 -0.01200727 359.05555922 -0.00891769 C361.87953412 -0.00859698 364.70350903 -0.00828413 367.52748394 -0.00797462 C368.22281297 -0.00789555 368.918142 -0.00781647 369.63454161 -0.007735 C380.13096485 -0.00659792 390.62738592 -0.00792708 401.12380886 -0.01045418 C413.0604649 -0.0133137 424.99711456 -0.01250182 436.93377035 -0.00717343 C443.02492108 -0.0045441 449.11606084 -0.00351841 455.20721149 -0.00682259 C460.78269513 -0.00980131 466.35815763 -0.00816636 471.93363936 -0.00284503 C473.95104344 -0.00172759 475.9684493 -0.00229714 477.98585223 -0.00472082 C480.72838141 -0.00776301 483.47083824 -0.00464078 486.21336365 0 C486.99602385 -0.00234117 487.77868405 -0.00468233 488.58506122 -0.00709444 C497.15508615 0.02187489 504.39957132 0.62877038 512.04460239 4.68834114 C512.73151157 5.04404182 513.41842075 5.39974251 514.12614536 5.766222 C522.4220652 10.16997762 530.1946938 15.13434512 535.95085239 22.68052864 C537.29480979 24.41045402 537.29480979 24.41045402 540.16960239 26.12584114 C542.12289586 28.96168581 543.60329045 32.06322003 545.16960239 35.12584114 C545.69296177 36.09005989 546.21632114 37.05427864 546.75553989 38.04771614 C552.97439466 50.24273866 553.46087094 62.10917756 553.04460239 75.50084114 C553.0232523 76.40374886 553.0019022 77.30665657 552.97990513 78.23692513 C552.24449138 93.2269942 543.09852352 108.22824478 533.16960239 119.12584114 C531.52138995 120.15597392 529.85456538 121.15698743 528.16960239 122.12584114 C527.48897739 122.88896614 526.80835239 123.65209114 526.10710239 124.43834114 C511.98808192 137.35574286 492.30054091 138.87087992 474.21940708 138.76075935 C472.13809499 138.76653098 470.056788 138.77447904 467.97549152 138.78439558 C462.29599699 138.80514895 456.61692587 138.79500618 450.93743038 138.77946448 C444.79689728 138.76810762 438.65643475 138.78563515 432.51591587 138.79936409 C421.19550084 138.82027443 409.87525705 138.81851647 398.55484641 138.80480675 C388.09483375 138.79220205 377.63487012 138.78895796 367.17485142 138.79491997 C366.47955447 138.79530189 365.78425752 138.79568382 365.06789097 138.79607732 C362.24507039 138.79763415 359.42224983 138.79922616 356.59942929 138.80087614 C330.14840983 138.81615257 303.69747551 138.80233336 277.2464692 138.77539165 C253.77418673 138.75166566 230.30203993 138.75378889 206.82975864 138.77769661 C180.42545206 138.80450121 154.02122065 138.81506894 127.61690235 138.79963529 C124.79938604 138.79803183 121.98186971 138.79646762 119.16435337 138.79491997 C118.4706683 138.79452458 117.77698323 138.79412919 117.06227741 138.79372183 C106.61182565 138.78804742 96.16142843 138.79466159 85.71098423 138.80731773 C73.82188032 138.82164487 61.93293634 138.8174956 50.0438385 138.79091401 C43.98205521 138.77780616 37.92054664 138.77257197 31.8587656 138.78915977 C26.3021719 138.80413478 20.74610577 138.79574671 15.18955946 138.76927201 C13.18707976 138.763719 11.18455485 138.76645532 9.18210459 138.77865095 C-10.54930157 138.88953832 -29.32443563 134.66980604 -44.26789761 120.87584114 C-45.53633511 119.51459114 -45.53633511 119.51459114 -46.83039761 118.12584114 C-47.42594448 117.53545052 -48.02149136 116.94505989 -48.63508511 116.33677864 C-62.0402679 102.40999341 -67.47378869 84.73708508 -67.23322964 65.69395638 C-66.84731793 53.77320922 -63.58607845 44.52546986 -57.83039761 34.12584114 C-57.35473354 33.22478645 -56.87906948 32.32373177 -56.38899136 31.39537239 C-53.03934078 25.36235051 -49.20185664 21.38923888 -43.83039761 17.12584114 C-42.7462748 16.12669708 -41.66292275 15.12671597 -40.58039761 14.12584114 C-28.52160507 3.83309603 -15.51986994 -0.04628603 0 0 Z " fill="#B2B2B2" transform="translate(570.830397605896,630.8741588592529)"/>
<path d="M0 0 C0.82371094 0.49757813 1.64742187 0.99515625 2.49609375 1.5078125 C7.30668255 4.52529185 10.51497995 7.54691883 14 12 C15.2065625 12.8971875 15.2065625 12.8971875 16.4375 13.8125 C27.09562408 22.91089861 32.3336776 39.00504864 33.58813477 52.59472656 C35.19482124 73.36775296 28.39321949 92.18856033 15 108 C13.37446717 109.70680947 11.70884005 111.37660195 10 113 C9.11248047 113.91845703 9.11248047 113.91845703 8.20703125 114.85546875 C7.26923828 115.82419922 7.26923828 115.82419922 6.3125 116.8125 C5.44044922 117.71935547 5.44044922 117.71935547 4.55078125 118.64453125 C3 120 3 120 1 120 C0.7525 120.57234375 0.505 121.1446875 0.25 121.734375 C-1.19316199 124.35010611 -2.88216222 126.14773456 -5 128.25 C-5.70125 128.95640625 -6.4025 129.6628125 -7.125 130.390625 C-9 132 -9 132 -11 132 C-11.26167969 132.58910156 -11.52335937 133.17820312 -11.79296875 133.78515625 C-13.0642275 136.11785434 -14.40230531 137.60354368 -16.3125 139.4375 C-17.25029297 140.34822266 -17.25029297 140.34822266 -18.20703125 141.27734375 C-19.09455078 142.13005859 -19.09455078 142.13005859 -20 143 C-21.2375 144.2375 -21.2375 144.2375 -22.5 145.5 C-23.7375 146.7375 -23.7375 146.7375 -25 148 C-25.59167969 148.61488281 -26.18335938 149.22976563 -26.79296875 149.86328125 C-27.73076172 150.82814453 -27.73076172 150.82814453 -28.6875 151.8125 C-29.26886719 152.41707031 -29.85023438 153.02164063 -30.44921875 153.64453125 C-32 155 -32 155 -34 155 C-34.2475 155.57234375 -34.495 156.1446875 -34.75 156.734375 C-36.19316199 159.35010611 -37.88216222 161.14773456 -40 163.25 C-40.70125 163.95640625 -41.4025 164.6628125 -42.125 165.390625 C-44 167 -44 167 -46 167 C-46.26167969 167.58910156 -46.52335937 168.17820312 -46.79296875 168.78515625 C-48.0642275 171.11785434 -49.40230531 172.60354368 -51.3125 174.4375 C-52.25029297 175.34822266 -52.25029297 175.34822266 -53.20703125 176.27734375 C-54.09455078 177.13005859 -54.09455078 177.13005859 -55 178 C-56.2375 179.2375 -56.2375 179.2375 -57.5 180.5 C-58.7375 181.7375 -58.7375 181.7375 -60 183 C-60.59167969 183.61488281 -61.18335938 184.22976563 -61.79296875 184.86328125 C-62.73076172 185.82814453 -62.73076172 185.82814453 -63.6875 186.8125 C-64.26886719 187.41707031 -64.85023438 188.02164062 -65.44921875 188.64453125 C-67 190 -67 190 -69 190 C-69.2475 190.57234375 -69.495 191.1446875 -69.75 191.734375 C-71.19316199 194.35010611 -72.88216222 196.14773456 -75 198.25 C-75.70125 198.95640625 -76.4025 199.6628125 -77.125 200.390625 C-79 202 -79 202 -81 202 C-81.26167969 202.58910156 -81.52335937 203.17820312 -81.79296875 203.78515625 C-83.0642275 206.11785434 -84.40230531 207.60354368 -86.3125 209.4375 C-87.25029297 210.34822266 -87.25029297 210.34822266 -88.20703125 211.27734375 C-89.09455078 212.13005859 -89.09455078 212.13005859 -90 213 C-91.2375 214.2375 -91.2375 214.2375 -92.5 215.5 C-93.7375 216.7375 -93.7375 216.7375 -95 218 C-95.59167969 218.61488281 -96.18335938 219.22976563 -96.79296875 219.86328125 C-97.73076172 220.82814453 -97.73076172 220.82814453 -98.6875 221.8125 C-99.26886719 222.41707031 -99.85023438 223.02164062 -100.44921875 223.64453125 C-102 225 -102 225 -104 225 C-104.33837891 225.83724609 -104.33837891 225.83724609 -104.68359375 226.69140625 C-110.51629713 236.92027182 -123.87104657 244.65568756 -133.125 251.58300781 C-135.51341319 253.38800132 -137.85065009 255.25394112 -140.1875 257.125 C-143.31282863 259.56573284 -146.41510474 261.27925028 -150 263 C-151.65310253 264.04779582 -153.29645939 265.11101968 -154.93359375 266.18359375 C-160.85707736 269.9756758 -166.94490819 273.32827522 -173.1875 276.5625 C-174.28320312 277.1304126 -175.37890625 277.6983252 -176.5078125 278.28344727 C-184.8541028 282.54445457 -193.12434792 286.0137129 -202 289 C-203.39738291 289.51009779 -204.7931739 290.02457366 -206.1875 290.54296875 C-219.67802196 295.52526379 -233.37224129 298.73114513 -247.4375 301.625 C-248.42492187 301.83133057 -249.41234375 302.03766113 -250.4296875 302.25024414 C-266.01130201 305.36935309 -281.23690053 306.35028058 -297.09960938 306.31567383 C-300.10063476 306.31252556 -303.10065872 306.33603409 -306.1015625 306.36132812 C-324.5241627 306.42280458 -342.60288061 304.50980439 -360.5 300.0625 C-361.59328613 299.79872559 -362.68657227 299.53495117 -363.81298828 299.26318359 C-365.94219532 298.74629369 -368.07006816 298.2238634 -370.19628906 297.69482422 C-372.55139415 297.11117487 -374.90970048 296.55112121 -377.2734375 296.00390625 C-386.33922594 293.79153922 -394.80417742 290.43140062 -403.40625 286.87109375 C-406.81782808 285.46175434 -410.24009298 284.20956299 -413.75 283.0625 C-419.27336273 281.12233144 -424.22389099 278.21303817 -429.25683594 275.26000977 C-432.32526093 273.46444998 -435.27100663 271.88504554 -438.5546875 270.4921875 C-442.25161446 268.89102412 -445.53125633 266.90648291 -448.875 264.6875 C-449.47997314 264.29087158 -450.08494629 263.89424316 -450.70825195 263.4855957 C-451.9155137 262.69312435 -453.12136713 261.89850267 -454.32568359 261.1015625 C-455.80804896 260.126288 -457.30351327 259.17098738 -458.80078125 258.21875 C-459.98220703 257.46078125 -459.98220703 257.46078125 -461.1875 256.6875 C-461.86167969 256.25824219 -462.53585937 255.82898437 -463.23046875 255.38671875 C-465.23876232 253.81289046 -466.55797741 252.09383466 -468 250 C-467.67 249.34 -467.34 248.68 -467 248 C-466.36320312 248.28875 -465.72640625 248.5775 -465.0703125 248.875 C-449.55184946 254.8024766 -428.28900374 254.58765829 -413 248 C-397.30358187 240.23082627 -382.76916486 228.20479751 -376.6484375 211.2578125 C-376.21712102 209.88233371 -375.79276475 208.50465518 -375.375 207.125 C-375.1584375 206.44308594 -374.941875 205.76117187 -374.71875 205.05859375 C-369.71460174 188.8414466 -370.95222142 172.32125779 -378 157 C-378.268125 156.05125 -378.53625 155.1025 -378.8125 154.125 C-380.26721787 150.29679508 -382.39361865 147.27883309 -384.7578125 143.953125 C-386 142 -386 142 -386 140 C-380.79673438 141.24227967 -377.39054742 142.88719338 -373 146.0625 C-366.85398203 150.25398125 -360.42286731 153.12423298 -353.5 155.8125 C-352.57574219 156.17287354 -351.65148437 156.53324707 -350.69921875 156.90454102 C-338.47729872 161.51019637 -326.76026943 164.63164814 -313.6875 165.375 C-312.39513428 165.45314941 -311.10276855 165.53129883 -309.77124023 165.61181641 C-292.476944 166.48337005 -274.41531056 166.04198226 -258 160 C-257.12553223 159.6803125 -256.25106445 159.360625 -255.35009766 159.03125 C-237.42726953 152.32777112 -219.57262526 143.8433044 -206 130 C-204.69357854 128.8679469 -203.38069818 127.74331784 -202.0625 126.625 C-199.78961867 124.65324451 -197.88517003 122.85646254 -196 120.5 C-193.59950808 117.4993851 -190.8575725 115.18065247 -187.9453125 112.6875 C-185.50585763 110.57134638 -183.25405947 108.31185587 -181 106 C-179.83468599 104.83198224 -178.66792182 103.66541016 -177.5 102.5 C-176.901875 101.901875 -176.30375 101.30375 -175.6875 100.6875 C-168.29166667 93.29166667 -160.89583333 85.89583333 -153.5 78.5 C-152.89929688 77.89800781 -152.29859375 77.29601562 -151.6796875 76.67578125 C-150.33758735 75.33680226 -148.98329362 74.01004905 -147.625 72.6875 C-145.22407506 70.22941018 -142.96031053 67.70085193 -140.6875 65.125 C-137.25450253 61.28072829 -133.69571484 57.83446334 -129.765625 54.5078125 C-127.37373894 52.46518414 -125.19595506 50.25085394 -123 48 C-121.66803209 46.66530264 -120.33457769 45.33208781 -119 44 C-118.30777344 43.30648437 -117.61554688 42.61296875 -116.90234375 41.8984375 C-115.46527954 40.46432414 -114.01661094 39.04182604 -112.5625 37.625 C-110.18343813 35.18791223 -107.94061948 32.67802275 -105.6875 30.125 C-102.25627108 26.28270871 -98.70222905 22.83553557 -94.76953125 19.515625 C-93.26330726 18.22552587 -91.83983136 16.83983136 -90.4375 15.4375 C-88.01104686 13.01104686 -85.48164932 10.81495415 -82.84375 8.625 C-80.86447147 6.93721077 -80.86447147 6.93721077 -78.76171875 4.5703125 C-75.51511625 1.54872206 -72.28104078 -0.2183556 -68.3125 -2.125 C-67.60569092 -2.47119385 -66.89888184 -2.8173877 -66.1706543 -3.17407227 C-60.92454608 -5.68786987 -55.69117155 -7.7271132 -50 -9 C-48.88625 -9.27070312 -48.88625 -9.27070312 -47.75 -9.546875 C-30.98883538 -12.30865781 -14.29277729 -9.10569964 0 0 Z " fill="#FDA016" transform="translate(912,863)"/>
<path d="M0 0 C7.3057775 1.25205021 14.14605184 3.20861924 21.125 5.6875 C22.13127441 6.04199219 23.13754883 6.39648438 24.17431641 6.76171875 C31.9605366 9.54473028 39.55503377 12.6147287 47.05224609 16.09814453 C49.1281074 17.05931671 51.21386191 17.99669521 53.30078125 18.93359375 C62.31716765 23.02511377 70.70858032 27.56074387 79 33 C80.02867187 33.67160156 81.05734375 34.34320313 82.1171875 35.03515625 C85.0941064 37.00083171 88.05069874 38.99317518 91 41 C92.28003906 41.86238281 92.28003906 41.86238281 93.5859375 42.7421875 C100.01844149 47.14551042 106.05753631 51.9579096 112 57 C112.78124221 57.65471786 112.78124221 57.65471786 113.5782671 58.32266235 C120.3095688 64.07426503 126.50822578 70.36000825 132.76245117 76.6171875 C134.03609283 77.88783244 135.30993775 79.15827365 136.58396912 80.42852783 C140.02416394 83.85993459 143.46115237 87.29453528 146.89727569 90.73001862 C149.04695348 92.87898341 151.19734269 95.02723366 153.34798622 97.17523193 C160.85813367 104.67614596 168.3657118 112.17962046 175.87084961 119.68554688 C182.85659989 126.67189869 189.84791761 133.65264456 196.84185046 140.63080406 C202.8583551 146.63422467 208.87098938 152.64150305 214.88063604 158.65178871 C218.46490792 162.23631516 222.05070423 165.81928286 225.64040184 169.39837646 C229.01425335 172.76253149 232.38324958 176.13147472 235.74862099 179.50411224 C236.98161096 180.73814584 238.21629858 181.97048602 239.45283508 183.20096588 C241.14566373 184.88604081 242.83215021 186.57722814 244.51725769 188.27001953 C245.0030598 188.75067808 245.48886192 189.23133663 245.98938531 189.72656059 C258.53558328 202.3987731 264.6822827 220.02265366 265.09765625 237.65625 C265.03845172 249.14707638 261.90640384 259.65928812 257 270 C256.71640625 270.71414063 256.4328125 271.42828125 256.140625 272.1640625 C253.35328324 278.76427741 248.12553247 283.15878058 243 288 C241.77023437 289.26263672 241.77023437 289.26263672 240.515625 290.55078125 C227.5791607 303.14575503 210.64089344 307.29713368 192.9777832 307.31469727 C175.81651877 307.00553474 162.39294748 301.67867674 149.40406799 290.50222778 C148.79339999 289.9770771 148.18273198 289.45192642 147.55355889 288.91086209 C141.3581214 283.52647909 135.55246844 277.79931846 129.78491211 271.96435547 C128.64185634 270.81580255 127.49832187 269.66772588 126.35435486 268.52008057 C123.92135925 266.07748847 121.49146111 263.63187391 119.06400871 261.18377304 C115.21347134 257.30098611 111.35439992 253.42675321 107.49403381 249.55374146 C97.91370067 239.9395779 88.34287939 230.31596121 78.7769165 220.6875 C71.32357043 213.18550734 63.86692672 205.68686412 56.39965445 198.19872963 C52.57328276 194.36094124 48.75391647 190.51636397 44.93993556 186.66626334 C42.55469362 184.26163333 40.16303184 181.86346512 37.76966286 179.46692657 C36.67427577 178.36757052 35.58142891 177.26567553 34.49155426 176.16085434 C25.23298408 166.78006947 15.58829968 158.42223073 4 152 C1.08377697 150.26397167 -1.83129323 148.52620024 -4.7421875 146.78125 C-11.93822257 142.84672723 -19.23260947 140.12519214 -27.125 137.9375 C-28.04732422 137.68073486 -28.96964844 137.42396973 -29.91992188 137.15942383 C-56.7801625 129.80183008 -82.18846249 129.4927695 -109 137 C-109.73750488 137.20608887 -110.47500977 137.41217773 -111.23486328 137.62451172 C-120.6953649 140.34641632 -129.09217969 143.84344765 -137.55883789 148.87353516 C-142.24738175 151.65233025 -146.70848125 153.58262891 -152 155 C-152 152 -152 152 -149.64914989 149.57038212 C-148.56446103 148.60009014 -147.47294347 147.63740083 -146.37626648 146.68067932 C-145.16837529 145.59663186 -143.96254849 144.51028065 -142.75858116 143.42187691 C-141.82104488 142.57547327 -141.82104488 142.57547327 -140.86456847 141.71197057 C-137.91876288 139.00725226 -135.07989688 136.20029336 -132.24909973 133.37608337 C-131.67270732 132.80164336 -131.09631491 132.22720335 -130.50245607 131.63535607 C-128.65960848 129.79521178 -126.81964655 127.95221176 -124.97973633 126.10913086 C-123.63153269 124.76228625 -122.28311729 123.41565358 -120.93450928 122.06921387 C-117.3151709 118.4543858 -113.69894374 114.83646097 -110.08345628 111.21778178 C-106.28628549 107.41805922 -102.48665287 103.62079962 -98.68742371 99.82313538 C-92.32196412 93.45948709 -85.95859853 87.09375065 -79.59643555 80.72680664 C-72.24031582 73.36522285 -64.88056909 66.00727986 -57.51897413 58.65117162 C-51.18313506 52.3198655 -44.84924027 45.98661927 -38.51697749 39.65173632 C-34.74100368 35.87420375 -30.96435786 32.0973497 -27.18595314 28.32224846 C-23.64350841 24.78268583 -20.10350637 21.24069844 -16.56539917 17.69680023 C-15.26576746 16.39584376 -13.96527938 15.09574216 -12.66388512 13.79654884 C-10.89163219 12.02701791 -9.1224714 10.25445279 -7.3540802 8.48106384 C-6.57653018 7.70685991 -6.57653018 7.70685991 -5.78327209 6.91701549 C-3.57474606 4.6963183 -1.74561312 2.61841968 0 0 Z " fill="#FDA017" transform="translate(681,237)"/>
<path d="M0 0 C1.98 0.33 3.96 0.66 6 1 C6 1.66 6 2.32 6 3 C5.30314716 2.88453166 4.60629433 2.76906332 3.88832474 2.65009594 C-0.31959633 3.15986156 -2.37353992 5.69194781 -5.2131958 8.59846497 C-5.82112811 9.20071402 -6.42906042 9.80296307 -7.05541492 10.42346209 C-9.09491974 12.4500203 -11.11602111 14.49399514 -13.13769531 16.53833008 C-14.59386125 17.99263278 -16.05111264 19.44584933 -17.5093689 20.89805603 C-21.47090704 24.84959733 -25.41665385 28.81657329 -29.3595438 32.78671098 C-33.48271475 36.93366488 -37.61922248 41.06727434 -41.75408936 45.20256042 C-48.6960817 52.14918461 -55.62848739 59.1052586 -62.5546875 66.06762695 C-70.57014676 74.12482998 -78.59763055 82.16988516 -86.63233495 90.20789415 C-95.17539705 98.7545521 -103.71079956 107.30882507 -112.24332333 115.8660028 C-114.70730254 118.33621937 -117.17258332 120.80513097 -119.63809967 123.27381325 C-123.5072256 127.14882786 -127.37111153 131.02899383 -131.23094559 134.91326332 C-132.65106942 136.34084536 -134.07290049 137.76673132 -135.49652481 139.1908226 C-137.43394082 141.12949069 -139.36511411 143.07416544 -141.29473877 145.02058411 C-142.14904413 145.87126684 -142.14904413 145.87126684 -143.02060819 146.73913509 C-145.39491153 149.14604773 -146.91558188 150.74674564 -148 154 C-150.0625 154.6875 -150.0625 154.6875 -152 155 C-152 152 -152 152 -149.64914989 149.57038212 C-148.56446103 148.60009014 -147.47294347 147.63740083 -146.37626648 146.68067932 C-145.16837529 145.59663186 -143.96254849 144.51028065 -142.75858116 143.42187691 C-141.82104488 142.57547327 -141.82104488 142.57547327 -140.86456847 141.71197057 C-137.91876288 139.00725226 -135.07989688 136.20029336 -132.24909973 133.37608337 C-131.67270732 132.80164336 -131.09631491 132.22720335 -130.50245607 131.63535607 C-128.65960848 129.79521178 -126.81964655 127.95221176 -124.97973633 126.10913086 C-123.63153269 124.76228625 -122.28311729 123.41565358 -120.93450928 122.06921387 C-117.3151709 118.4543858 -113.69894374 114.83646097 -110.08345628 111.21778178 C-106.28628549 107.41805922 -102.48665287 103.62079962 -98.68742371 99.82313538 C-92.32196412 93.45948709 -85.95859853 87.09375065 -79.59643555 80.72680664 C-72.24031582 73.36522285 -64.88056909 66.00727986 -57.51897413 58.65117162 C-51.18313506 52.3198655 -44.84924027 45.98661927 -38.51697749 39.65173632 C-34.74100368 35.87420375 -30.96435786 32.0973497 -27.18595314 28.32224846 C-23.64350841 24.78268583 -20.10350637 21.24069844 -16.56539917 17.69680023 C-15.26576746 16.39584376 -13.96527938 15.09574216 -12.66388512 13.79654884 C-10.89163219 12.02701791 -9.1224714 10.25445279 -7.3540802 8.48106384 C-6.57653018 7.70685991 -6.57653018 7.70685991 -5.78327209 6.91701549 C-3.57474606 4.6963183 -1.74561312 2.61841968 0 0 Z " fill="#E09016" transform="translate(681,237)"/>
<path d="M0 0 C0 3 0 3 -1.875 5.1875 C-4 7 -4 7 -6 7 C-6.24169922 7.5662207 -6.48339844 8.13244141 -6.73242188 8.71582031 C-8.25095817 11.4522274 -10.07151881 13.33069338 -12.28125 15.546875 C-13.54388672 16.81337891 -13.54388672 16.81337891 -14.83203125 18.10546875 C-15.71246094 18.97816406 -16.59289062 19.85085938 -17.5 20.75 C-18.38042969 21.63816406 -19.26085937 22.52632812 -20.16796875 23.44140625 C-21.00972656 24.28058594 -21.85148438 25.11976563 -22.71875 25.984375 C-23.49154297 26.75491211 -24.26433594 27.52544922 -25.06054688 28.31933594 C-27 30 -27 30 -29 30 C-29.26826096 30.59357803 -29.53652191 31.18715607 -29.81291199 31.79872131 C-31.00952727 34.0176669 -32.2110347 35.45298773 -33.9934082 37.22045898 C-34.59776199 37.82466171 -35.20211578 38.42886444 -35.82478333 39.05137634 C-36.47686264 39.69313309 -37.12894196 40.33488983 -37.80078125 40.99609375 C-38.47417038 41.66665298 -39.14755951 42.33721222 -39.84135437 43.02809143 C-41.99374742 45.16930759 -44.15297738 47.30347692 -46.3125 49.4375 C-47.75501676 50.86998017 -49.19707922 52.30291797 -50.63867188 53.73632812 C-53.29577499 56.37712022 -55.95548235 59.01522636 -58.6184082 61.65014648 C-61.42149844 64.42431412 -64.214323 67.20835156 -67 70 C-67.66 69.67 -68.32 69.34 -69 69 C-66.62575183 65.73540876 -64.05654207 63.10604426 -61 60.5 C-58.73163861 58.56522117 -56.86950528 56.8368816 -55 54.5 C-52.59840099 51.49800124 -49.85463469 49.17834739 -46.94140625 46.68359375 C-44.5024528 44.56852546 -42.2541667 42.31052086 -40 40 C-38.66803209 38.66530264 -37.33457769 37.33208781 -36 36 C-35.30777344 35.30648437 -34.61554687 34.61296875 -33.90234375 33.8984375 C-32.46527954 32.46432414 -31.01661094 31.04182604 -29.5625 29.625 C-27.18343813 27.18791223 -24.94061948 24.67802275 -22.6875 22.125 C-19.25827124 18.2849485 -15.70499302 14.8405337 -11.77734375 11.51953125 C-9.38388519 9.47325569 -7.19582264 7.2551692 -5 5 C-3.33333333 3.33333333 -1.66666667 1.66666667 0 0 Z " fill="#DCA066" transform="translate(829,871)"/>
<path d="M0 0 C0 4.18883702 -2.32599097 5.9308428 -5.0625 8.8125 C-5.56112549 9.34713867 -6.05975098 9.88177734 -6.57348633 10.43261719 C-10.16903995 14.24233696 -13.9057971 17.72463768 -18 21 C-18.66 20.67 -19.32 20.34 -20 20 C-15.93271189 15.10654399 -11.72019588 10.72593464 -6.8671875 6.609375 C-4.44537851 4.52195805 -2.22485957 2.29438644 0 0 Z " fill="#E99E47" transform="translate(731,969)"/>
<path d="M0 0 C0.66 0.33 1.32 0.66 2 1 C1.01 1.66 0.02 2.32 -1 3 C-0.67 2.01 -0.34 1.02 0 0 Z M-6 5 C-5.01 5.33 -4.02 5.66 -3 6 C-5.64 8.64 -8.28 11.28 -11 14 C-11.66 13.67 -12.32 13.34 -13 13 C-11.64458676 8.93376028 -9.42990531 7.46953182 -6 5 Z " fill="#F39F2A" transform="translate(765,936)"/>
<path d="M0 0 C0.99 0.33 1.98 0.66 3 1 C0.03 3.97 -2.94 6.94 -6 10 C-6.66 9.67 -7.32 9.34 -8 9 C-5.36 6.03 -2.72 3.06 0 0 Z " fill="#FFA923" transform="translate(828,1066)"/>
<path d="M0 0 C0.99 0.33 1.98 0.66 3 1 C0.03 3.97 -2.94 6.94 -6 10 C-6.33 9.34 -6.66 8.68 -7 8 C-4.69 5.36 -2.38 2.72 0 0 Z " fill="#FEA823" transform="translate(816,1078)"/>
<path d="M0 0 C0 3 0 3 -1.53125 4.82421875 C-2.1809375 5.43910156 -2.830625 6.05398438 -3.5 6.6875 C-4.1496875 7.31011719 -4.799375 7.93273438 -5.46875 8.57421875 C-5.9740625 9.04472656 -6.479375 9.51523438 -7 10 C-7.66 9.67 -8.32 9.34 -9 9 C-7.87895467 7.68412059 -6.75303035 6.37239647 -5.625 5.0625 C-4.99851562 4.33160156 -4.37203125 3.60070313 -3.7265625 2.84765625 C-2 1 -2 1 0 0 Z " fill="#FEA721" transform="translate(841,1054)"/>
<path d="M0 0 C0 0.66 0 1.32 0 2 C-3.63 2.66 -7.26 3.32 -11 4 C-10.67 3.01 -10.34 2.02 -10 1 C-6.56484998 0.37542727 -3.50935186 0 0 0 Z " fill="#CF8F3D" transform="translate(677,1160)"/>
<path d="M0 0 C0.66 0.33 1.32 0.66 2 1 C-0.97 3.97 -3.94 6.94 -7 10 C-7.33 9.01 -7.66 8.02 -8 7 C-5.36 4.69 -2.72 2.38 0 0 Z " fill="#EAA768" transform="translate(783,917)"/>
<path d="M0 0 C2.64 0 5.28 0 8 0 C8 0.66 8 1.32 8 2 C3.545 2.495 3.545 2.495 -1 3 C-0.67 2.01 -0.34 1.02 0 0 Z " fill="#D19439" transform="translate(644,1165)"/>
<path d="M0 0 C0.66 0 1.32 0 2 0 C0.515 5.445 0.515 5.445 -1 11 C-2.13757948 6.44968209 -1.4283779 4.36915594 0 0 Z " fill="#CF8F41" transform="translate(942,490)"/>
<path d="M0 0 C0 3 0 3 -2.5 5.6875 C-3.325 6.450625 -4.15 7.21375 -5 8 C-5.66 7.67 -6.32 7.34 -7 7 C-4.78071806 4.09197539 -3.07030857 2.04687238 0 0 Z " fill="#151515" transform="translate(724,194)"/>
<path d="M0 0 C0 3 0 3 -2.5 5.6875 C-3.325 6.450625 -4.15 7.21375 -5 8 C-5.66 7.67 -6.32 7.34 -7 7 C-4.78071806 4.09197539 -3.07030857 2.04687238 0 0 Z " fill="#141414" transform="translate(759,159)"/>
<path d="M0 0 C0 3 0 3 -2.5 5.6875 C-3.325 6.450625 -4.15 7.21375 -5 8 C-5.66 7.67 -6.32 7.34 -7 7 C-4.78071806 4.09197539 -3.07030857 2.04687238 0 0 Z " fill="#141414" transform="translate(794,124)"/>
<path d="" fill="#000000" transform="translate(0,0)"/>
<path d="" fill="#000000" transform="translate(0,0)"/>
<path d="" fill="#000000" transform="translate(0,0)"/>
</svg>
